<svg height="512" viewBox="0 0 510 510" width="512" xmlns="http://www.w3.org/2000/svg"><path d="M462.393 459.282H47.607C31.256 459.282 18 446.026 18 429.674L0 80.325c0-16.352 13.256-29.607 29.607-29.607h450.785c16.352 0 29.607 13.256 29.607 29.607l-18 349.349c.001 16.352-13.255 29.608-29.606 29.608z" fill="#8d8d8e"/><path d="M480.393 459.282H29.607C13.256 459.282 0 446.026 0 429.674c0-8.258 3.41-16.149 9.423-21.808l222.585-209.465c12.918-12.156 33.066-12.156 45.984 0l222.585 209.465A29.943 29.943 0 01510 429.674c0 16.352-13.256 29.608-29.607 29.608z" fill="#8d8d8e"/><path d="M4.235 352.963v76.711c0 16.352 13.036 29.607 29.116 29.607h443.298c16.08 0 29.116-13.256 29.116-29.607v-76.711z" fill="#8d8d8e"/><path d="M0 80.326v349.349c0 16.352 13.256 29.607 29.607 29.607h19.16V50.718h-19.16C13.256 50.718 0 63.974 0 80.326z" fill="#8d8d8e"/><path d="M10.423 102.133L392 459.282h88.393c16.352 0 29.607-13.256 29.607-29.607V80.326c0-16.352-13.256-27.607-29.607-27.607H29.607C13.256 52.718 1 63.974 1 80.326c0 8.257 3.41 16.148 9.423 21.807z" fill="#8d8d8e"/><path d="M510 80.326v349.349c0 16.352-13.256 29.607-29.607 29.607h-19.16V50.718h19.16c16.351 0 29.607 13.256 29.607 29.608z" fill="#8d8d8e"/><path d="M480.393 52.718h-19.16v180.996H510V82.326c0-16.352-13.256-29.608-29.607-29.608zm-450.786 0h19.16v180.996H0V82.326c0-16.352 13.256-29.608 29.607-29.608z" fill="#8d8d8e"/><path d="M480.393 50.718H29.607C13.256 50.718 0 63.974 0 80.326c0 8.258 3.41 13.149 9.423 18.808l222.585 209.465c12.918 12.156 33.066 12.156 45.984 0L500.577 99.133C506.59 93.474 510 88.583 510 80.326c0-16.352-13.256-29.608-29.607-29.608z" fill="#8d8d8e"/><path d="M479.775 50.718c-1.179 0-2.313.45-3.171 1.257L277.992 238.881c-12.918 12.156-33.066 12.156-45.984 0L33.397 51.976a4.627 4.627 0 00-3.171-1.258C15.119 50.718 1.978 61.797.208 76.8a29.95 29.95 0 009.216 25.333l222.585 209.465c12.918 12.156 33.066 12.156 45.984 0l222.585-209.465a29.95 29.95 0 009.216-25.333c-1.771-15.003-14.912-26.082-30.019-26.082z" fill="#2b2a2c"/></svg>